<svg width="72" height="72" viewBox="0 0 72 72" fill="none" xmlns="http://www.w3.org/2000/svg">
<g clip-path="url(#clip0_1_547)">
<path d="M2.01043 41.2035L6.7089 41.9736C7.45121 45.5713 8.87182 48.9949 10.8948 52.0612L8.11239 55.9445C7.53507 56.7304 7.54499 57.803 8.13684 58.5781C8.8384 59.4357 9.5839 60.2564 10.3701 61.0371C11.1634 61.8316 11.981 62.5638 12.8231 63.2716C13.5988 63.8646 14.6727 63.8746 15.4592 63.2961L19.34 60.5124C22.4034 62.5365 25.8245 63.9581 29.4203 64.7007L30.1892 69.4029C30.3357 70.3647 31.1031 71.1124 32.0686 71.2334C32.7373 71.3092 33.411 71.3554 34.0993 71.3897C34.4336 71.406 34.76 71.2853 35.0032 71.0555C35.2464 70.8256 35.3854 70.5065 35.388 70.1718V60.3917C35.3845 59.7324 34.8608 59.1936 34.2018 59.1713C21.8693 58.5319 12.1978 48.346 12.1978 35.9969C12.1978 23.6479 21.8693 13.462 34.2018 12.8226C34.8608 12.8003 35.3845 12.2616 35.388 11.6022V1.83064C35.3864 1.49616 35.2483 1.17679 35.0057 0.94636C34.7631 0.715931 34.437 0.594633 34.1029 0.610224C33.417 0.638688 32.7389 0.686758 32.0684 0.754198C31.1028 0.885771 30.3384 1.63635 30.1891 2.59941L29.4202 7.30154C25.8245 8.04527 22.4035 9.46706 19.3399 11.4911L15.4591 8.70621C14.6726 8.12759 13.5986 8.13752 12.823 8.73066C11.9678 9.43317 11.1491 10.179 10.37 10.9652C9.57788 11.7402 8.83214 12.5613 8.13672 13.4242C7.54239 14.2003 7.53247 15.2756 8.11227 16.0626L10.8947 19.9459C8.87218 23.0112 7.45157 26.4333 6.70878 30.0299L2.01031 30.7988C1.0482 30.9457 0.30069 31.7136 0.179747 32.6794C-0.0604854 34.8695 -0.0604854 37.0793 0.179747 39.2694C0.288289 40.2511 1.03603 41.0412 2.01043 41.2035Z" fill="white"/>
<path d="M34.2208 17.7319C24.5795 18.3427 17.0724 26.3404 17.0724 36.0009C17.0724 45.6615 24.5796 53.6592 34.2208 54.27C34.5275 54.2827 34.8261 54.169 35.0466 53.9553C35.2671 53.7417 35.3903 53.4469 35.3874 53.1399V18.862C35.3904 18.5549 35.2672 18.2602 35.0466 18.0466C34.8261 17.8329 34.5275 17.7192 34.2208 17.7319Z" fill="white"/>
<path d="M43.9301 18.9157H37.8282V21.3564H43.9301C45.9496 21.3504 47.5852 19.7148 47.5912 17.6953V10.1485C49.2724 9.55417 50.2808 7.8351 49.9793 6.07765C49.6777 4.32019 48.154 3.03564 46.3708 3.03564C44.5877 3.03564 43.0639 4.32019 42.7624 6.07765C42.4608 7.8351 43.4692 9.55417 45.1504 10.1485V17.6953C45.1504 18.3693 44.604 18.9157 43.9301 18.9157Z" fill="white"/>
<path d="M37.8291 26.2382H50.0329C50.7069 26.2382 51.2533 25.6918 51.2533 25.0178C51.2533 24.3437 50.7069 23.7974 50.0329 23.7974H37.8291V26.2382Z" fill="white"/>
<path d="M37.8291 53.0862H43.9309C44.605 53.0862 45.1513 53.6326 45.1513 54.3066V61.8534C43.4702 62.4477 42.4618 64.1668 42.7633 65.9243C43.0648 67.6817 44.5885 68.9663 46.3717 68.9663C48.1548 68.9663 49.6787 67.6817 49.9802 65.9243C50.2817 64.1668 49.2733 62.4477 47.5922 61.8534V54.3066C47.5861 52.2871 45.9506 50.6515 43.931 50.6455H37.8292V53.0862H37.8291Z" fill="white"/>
<path d="M56.1347 40.8828H37.8291V43.3235H56.1347C56.8088 43.3235 57.3551 43.8699 57.3551 44.5439V50.8704C55.674 51.4647 54.6656 53.1838 54.9671 54.9413C55.2686 56.6987 56.7923 57.9833 58.5755 57.9833C60.3586 57.9833 61.8825 56.6987 62.184 54.9413C62.4855 53.1838 61.4771 51.4647 59.796 50.8704V44.5439C59.7898 42.5244 58.1543 40.8888 56.1347 40.8828Z" fill="white"/>
<path d="M68.3385 32.3398C66.7926 32.3462 65.4172 33.323 64.9019 34.7806H37.8291V37.2213H64.9019C65.5255 38.972 67.3636 39.976 69.1738 39.5546C70.9839 39.1332 72.1896 37.4206 71.9758 35.5745C71.7621 33.7285 70.1969 32.3365 68.3385 32.3398Z" fill="white"/>
<path d="M51.2533 46.9846C51.2533 46.3105 50.7069 45.7642 50.0329 45.7642H37.8291V48.2049H50.0329C50.7069 48.205 51.2533 47.6586 51.2533 46.9846Z" fill="white"/>
<path d="M59.7951 27.4584V21.1319C61.4763 20.5376 62.4847 18.8185 62.1832 17.061C61.8816 15.3036 60.3579 14.019 58.5747 14.019C56.7916 14.019 55.2678 15.3036 54.9663 17.061C54.6647 18.8185 55.6731 20.5376 57.3543 21.1319V27.4584C57.3543 28.1324 56.8079 28.6788 56.1339 28.6788H37.8282V31.1195H56.1339C58.1535 31.1134 59.7891 29.4778 59.7951 27.4584Z" fill="white"/>
</g>
<defs>
<clipPath id="clip0_1_547">
<rect width="72" height="72" fill="white"/>
</clipPath>
</defs>
</svg>
