<svg width="72" height="72" viewBox="0 0 72 72" fill="none" xmlns="http://www.w3.org/2000/svg">
<path d="M39.375 60.75H52.875V67.5H39.375V60.75Z" fill="white"/>
<path d="M62.2575 43.4138L67.1512 25.1438C67.2072 24.954 67.2338 24.7567 67.23 24.5588C67.228 24.0436 67.0494 23.5447 66.7238 23.1454C66.3982 22.7461 65.9455 22.4707 65.4412 22.3651C64.8504 22.2733 64.2466 22.4077 63.7504 22.7413C63.2541 23.0749 62.9018 23.5833 62.7637 24.1651L59.2875 34.8863L59.355 34.9876C59.9494 36.0197 60.1112 37.2452 59.805 38.3963C59.6544 38.9692 59.3906 39.5063 59.0294 39.9758C58.6681 40.4452 58.2165 40.8377 57.7012 41.1301L51.255 44.8538C50.9979 44.9883 50.6988 45.0183 50.4201 44.9374C50.1414 44.8566 49.9047 44.6712 49.7595 44.42C49.6143 44.1687 49.5718 43.8711 49.6408 43.5893C49.7099 43.3075 49.8851 43.0632 50.13 42.9076L56.5762 39.1838C56.8333 39.0376 57.0591 38.842 57.2405 38.6085C57.422 38.3749 57.5556 38.1078 57.6337 37.8226C57.7815 37.2448 57.7009 36.6324 57.4087 36.1126C57.2608 35.8557 57.0636 35.6306 56.8284 35.4501C56.5932 35.2697 56.3246 35.1376 56.0382 35.0612C55.7517 34.9849 55.453 34.966 55.1593 35.0054C54.8655 35.0449 54.5824 35.1421 54.3262 35.2913L44.3925 41.1076C43.2113 41.8067 42.2317 42.8003 41.5494 43.9913C40.8672 45.1823 40.5056 46.53 40.5 47.9026V58.5001H51.75V56.0251C51.7523 55.2315 51.9207 54.4472 52.2442 53.7225C52.5678 52.9979 53.0394 52.349 53.6287 51.8176L61.245 45.0563C61.7361 44.6198 62.0882 44.0487 62.2575 43.4138Z" fill="white"/>
<path d="M57.465 33.2101L60.6038 23.5238C60.8585 22.5516 61.4239 21.6891 62.2139 21.0677C63.0038 20.4463 63.9751 20.1 64.98 20.0813V20.0588C64.9781 19.5436 64.7994 19.0447 64.4738 18.6454C64.1483 18.2461 63.6955 17.9707 63.1913 17.8651C62.6004 17.7733 61.9966 17.9077 61.5004 18.2413C61.0042 18.5749 60.6519 19.0833 60.5138 19.6651L55.9575 32.7826C56.4803 32.8402 56.9898 32.9846 57.465 33.2101Z" fill="white"/>
<path d="M9.742 43.4021C9.90829 44.0415 10.2607 44.617 10.7545 45.0559L18.3595 51.8171C18.9523 52.3464 19.427 52.9946 19.7527 53.7196C20.0783 54.4445 20.2476 55.2299 20.2495 56.0246V58.4996H31.4995V47.9021C31.4939 46.5295 31.1323 45.1819 30.4501 43.9909C29.7678 42.7999 28.7882 41.8062 27.607 41.1071L17.662 35.2796C17.4057 35.1326 17.1229 35.0375 16.8298 34.9998C16.5368 34.9621 16.2391 34.9825 15.954 35.0598C15.6688 35.1371 15.4016 35.2698 15.1677 35.4503C14.9338 35.6309 14.7377 35.8558 14.5908 36.1121C14.2985 36.6319 14.218 37.2444 14.3658 37.8221C14.4439 38.1074 14.5775 38.3744 14.759 38.608C14.9404 38.8416 15.1662 39.0371 15.4233 39.1834L21.8695 42.9071C22.1144 43.0628 22.2896 43.307 22.3587 43.5889C22.4277 43.8707 22.3852 44.1683 22.24 44.4195C22.0947 44.6707 21.8581 44.8561 21.5794 44.937C21.3007 45.0178 21.0016 44.9879 20.7445 44.8534L14.2983 41.1296C13.783 40.8373 13.3314 40.4448 12.9701 39.9753C12.6088 39.5058 12.3451 38.9688 12.1945 38.3959C11.8883 37.2448 12.05 36.0193 12.6445 34.9871L12.712 34.8859L9.25825 24.2209C9.12455 23.6261 8.7706 23.104 8.2676 22.7597C7.76459 22.4153 7.14985 22.2741 6.547 22.3646C6.04483 22.4725 5.59467 22.7489 5.27132 23.148C4.94797 23.547 4.77089 24.0447 4.7695 24.5584C4.76776 24.7554 4.79043 24.9519 4.837 25.1434L9.742 43.4021Z" fill="white"/>
<path d="M19.125 60.75H32.625V67.5H19.125V60.75Z" fill="white"/>
<path d="M8.79752 17.8651C8.29534 17.9729 7.84519 18.2494 7.52184 18.6484C7.19849 19.0475 7.02141 19.5452 7.02002 20.0588V20.0813C8.03376 20.1075 9.0114 20.4631 9.80504 21.0944C10.5987 21.7257 11.1652 22.5982 11.4188 23.5801L14.535 33.2101C15.0102 32.9847 15.5197 32.8402 16.0425 32.7826L11.52 19.7438C11.387 19.1449 11.0325 18.6185 10.5275 18.27C10.0226 17.9216 9.40464 17.7769 8.79752 17.8651Z" fill="white"/>
<path d="M37.125 16.875V12.375H34.875V16.875H30.375V19.125H34.875V23.625H37.125V19.125H41.625V16.875H37.125Z" fill="white"/>
<path d="M43.9535 4.72483C42.7718 4.72065 41.6011 4.95177 40.5096 5.4047C39.4181 5.85763 38.4277 6.52332 37.5962 7.36296L36.7952 8.16396C36.5842 8.37486 36.2981 8.49334 35.9998 8.49334C35.7015 8.49334 35.4154 8.37486 35.2044 8.16396L34.4057 7.36521C33.5704 6.52815 32.5783 5.86406 31.486 5.41095C30.3938 4.95784 29.2229 4.72461 28.0404 4.72461C26.8579 4.72461 25.687 4.95784 24.5948 5.41095C23.5026 5.86406 22.5104 6.52815 21.6752 7.36521C19.99 9.05268 19.0435 11.34 19.0435 13.7248C19.0435 16.1097 19.99 18.397 21.6752 20.0845L35.9998 34.4091L50.3244 20.0845C51.582 18.8251 52.438 17.2212 52.7842 15.4755C53.1304 13.7298 52.9512 11.9206 52.2694 10.2767C51.5875 8.63273 50.4335 7.22787 48.9534 6.23968C47.4732 5.25148 45.7333 4.72432 43.9535 4.72483ZM43.8748 20.2498C43.8748 20.5482 43.7563 20.8343 43.5453 21.0453C43.3343 21.2563 43.0482 21.3748 42.7498 21.3748H39.3748V24.7498C39.3748 25.0482 39.2563 25.3343 39.0453 25.5453C38.8343 25.7563 38.5482 25.8748 38.2498 25.8748H33.7498C33.4514 25.8748 33.1653 25.7563 32.9543 25.5453C32.7433 25.3343 32.6248 25.0482 32.6248 24.7498V21.3748H29.2498C28.9514 21.3748 28.6653 21.2563 28.4543 21.0453C28.2433 20.8343 28.1248 20.5482 28.1248 20.2498V15.7498C28.1248 15.4515 28.2433 15.1653 28.4543 14.9543C28.6653 14.7434 28.9514 14.6248 29.2498 14.6248H32.6248V11.2498C32.6248 10.9515 32.7433 10.6653 32.9543 10.4543C33.1653 10.2434 33.4514 10.1248 33.7498 10.1248H38.2498C38.5482 10.1248 38.8343 10.2434 39.0453 10.4543C39.2563 10.6653 39.3748 10.9515 39.3748 11.2498V14.6248H42.7498C43.0482 14.6248 43.3343 14.7434 43.5453 14.9543C43.7563 15.1653 43.8748 15.4515 43.8748 15.7498V20.2498Z" fill="white"/>
</svg>
