<svg width="72" height="72" viewBox="0 0 72 72" fill="none" xmlns="http://www.w3.org/2000/svg">
<path d="M36.4247 72.0001C36.1434 72.0001 35.8622 72.0001 35.5809 72.0001C34.9073 71.6921 34.2352 71.3785 33.5588 71.0762C23.7038 66.6591 16.0003 59.8191 10.5061 50.5224C6.85969 44.3518 4.57594 37.689 3.95297 30.548C3.61969 26.7315 3.67594 22.8755 3.64922 19.0379C3.63375 16.9538 5.18907 15.1383 7.25485 14.6419C13.1288 13.2301 16.7316 9.55975 18.187 3.72943C18.457 2.64943 18.9759 1.69459 19.9013 1.07162C20.5664 0.624434 21.3483 0.351621 22.0781 0.00146484C31.3608 0.00146484 40.642 0.00146484 49.9247 0.00146484C50.0063 0.0422461 50.0836 0.0999024 50.1694 0.122402C52.1255 0.615996 53.3194 1.86897 53.8383 3.79693C53.9536 4.22584 54.0366 4.6674 54.1856 5.08365C55.9294 9.95912 59.2931 13.1162 64.2923 14.4704C67.0739 15.2241 68.3775 16.8301 68.3817 19.7171C68.3831 21.053 68.3648 22.389 68.3859 23.7249C68.445 27.6019 68.2003 31.4579 67.3566 35.2477C63.8817 50.8641 55.0603 62.4193 40.9177 69.8991C39.458 70.6683 37.9238 71.3026 36.4247 72.0001ZM36.0098 10.1251C34.2056 10.1251 32.4 10.1166 30.5958 10.1279C28.3922 10.1419 26.6189 11.0462 25.4503 12.9038C23.2805 16.3505 20.527 19.1926 17.1225 21.4341C15.6178 22.4241 14.6391 23.8908 14.6208 25.7007C14.5969 28.104 14.5659 30.5565 14.9864 32.9091C17.1436 44.986 23.933 53.4629 35.1914 58.3594C35.7455 58.6013 36.2447 58.6013 36.8072 58.3693C41.0878 56.6044 44.8791 54.1112 48.0923 50.7755C54.6989 43.9158 57.6661 35.6485 57.4734 26.1943C57.4327 24.1679 56.5383 22.5141 54.8395 21.399C51.4519 19.1757 48.7209 16.3407 46.5623 12.9165C45.3909 11.0574 43.6275 10.1433 41.4239 10.1265C39.6197 10.1138 37.8155 10.1251 36.0098 10.1251Z" fill="white"/>
<path d="M16.882 28.2264C16.4855 25.6263 17.5275 23.891 19.7367 22.4749C22.8277 20.4921 25.2422 17.7541 27.1659 14.621C28.0631 13.1613 29.2837 12.4849 31.0008 12.5074C34.3744 12.5524 37.7494 12.5411 41.1244 12.5116C42.7247 12.4975 43.9102 13.1247 44.7469 14.4888C46.9139 18.0185 49.7517 20.9069 53.2111 23.1766C54.3994 23.9571 55.0702 25.0089 55.0856 26.4349C55.1728 33.9414 53.1816 40.7744 48.472 46.7158C45.2503 50.7799 41.2594 53.8441 36.4866 55.8761C36.2095 55.9943 35.7905 55.9928 35.5177 55.8705C25.245 51.22 19.1306 43.3464 17.2814 32.2075C17.0662 30.8941 17.0128 29.5539 16.882 28.2264ZM34.6669 38.2108C33.5616 37.1027 32.6405 36.1718 31.7095 35.2507C31.0697 34.6178 30.3806 34.5461 29.8575 35.0383C29.3147 35.5502 29.3681 36.2913 30.015 36.9452C31.1512 38.0927 32.2973 39.2303 33.4406 40.3708C34.2802 41.2075 34.8567 41.2075 35.7033 40.361C38.4848 37.5822 41.265 34.8007 44.0437 32.0191C44.1928 31.87 44.3461 31.7224 44.467 31.5522C44.8284 31.0418 44.775 30.4455 44.3475 30.0194C43.9284 29.6018 43.3111 29.5483 42.8105 29.9055C42.622 30.0405 42.4603 30.2149 42.2944 30.3794C40.043 32.6294 37.7887 34.8766 35.5472 37.1364C35.2364 37.45 34.9833 37.8213 34.6669 38.2108Z" fill="white"/>
</svg>
