<svg width="15" height="15" viewBox="0 0 15 15" fill="none" xmlns="http://www.w3.org/2000/svg">
<path d="M7.5 1.25C6.33968 1.25 5.22688 1.71094 4.40641 2.53141C3.58594 3.35188 3.125 4.46468 3.125 5.625V9.375C3.125 10.5353 3.58594 11.6481 4.40641 12.4686C5.22688 13.2891 6.33968 13.75 7.5 13.75C8.66032 13.75 9.77312 13.2891 10.5936 12.4686C11.4141 11.6481 11.875 10.5353 11.875 9.375V5.625C11.875 4.46468 11.4141 3.35188 10.5936 2.53141C9.77312 1.71094 8.66032 1.25 7.5 1.25ZM10.625 9.375C10.625 10.2038 10.2958 10.9987 9.70971 11.5847C9.12366 12.1708 8.3288 12.5 7.5 12.5C6.6712 12.5 5.87634 12.1708 5.29029 11.5847C4.70424 10.9987 4.375 10.2038 4.375 9.375V5.625C4.37485 4.90459 4.62361 4.20626 5.07918 3.64819C5.53475 3.09011 6.16915 2.70658 6.875 2.5625V7.5C6.875 7.66576 6.94085 7.82473 7.05806 7.94194C7.17527 8.05915 7.33424 8.125 7.5 8.125C7.66576 8.125 7.82473 8.05915 7.94194 7.94194C8.05915 7.82473 8.125 7.66576 8.125 7.5V2.5625C8.83085 2.70658 9.46525 3.09011 9.92082 3.64819C10.3764 4.20626 10.6251 4.90459 10.625 5.625V9.375Z" fill="white"/>
</svg>
